<mxfile host="Electron" agent="Mozilla/5.0 (Windows NT 10.0; Win64; x64) AppleWebKit/537.36 (KHTML, like Gecko) draw.io/24.7.5 Chrome/126.0.6478.183 Electron/31.3.0 Safari/537.36" version="24.7.5">
  <diagram name="Page-1" id="dfT_3cfTXJ-I1eOvUrxw">
    <mxGraphModel dx="1434" dy="836" grid="1" gridSize="10" guides="1" tooltips="1" connect="1" arrows="1" fold="1" page="1" pageScale="1" pageWidth="3300" pageHeight="4681" math="0" shadow="0">
      <root>
        <mxCell id="0" />
        <mxCell id="1" parent="0" />
        <mxCell id="KMJG8KaV29nE8Qvu-Qqy-22" value="" style="rounded=0;whiteSpace=wrap;html=1;strokeColor=none;" vertex="1" parent="1">
          <mxGeometry x="360" y="310" width="1070" height="450" as="geometry" />
        </mxCell>
        <mxCell id="mTngNyChg6h0ACZQnIlO-2" value="Permissions" style="text;html=1;align=center;verticalAlign=middle;whiteSpace=wrap;rounded=0;" parent="1" vertex="1">
          <mxGeometry x="620" y="550" width="340" height="20" as="geometry" />
        </mxCell>
        <mxCell id="mTngNyChg6h0ACZQnIlO-3" value="User" style="text;html=1;align=center;verticalAlign=middle;whiteSpace=wrap;rounded=0;" parent="1" vertex="1">
          <mxGeometry x="620" y="510" width="100" height="20" as="geometry" />
        </mxCell>
        <mxCell id="mTngNyChg6h0ACZQnIlO-5" value="&lt;font style=&quot;font-size: 40px;&quot;&gt;r w x&lt;/font&gt;" style="text;html=1;align=center;verticalAlign=middle;whiteSpace=wrap;rounded=0;fontStyle=1;fontSize=40;" parent="1" vertex="1">
          <mxGeometry x="620" y="450" width="100" height="30" as="geometry" />
        </mxCell>
        <mxCell id="mTngNyChg6h0ACZQnIlO-10" value="" style="shape=curlyBracket;whiteSpace=wrap;html=1;rounded=1;labelPosition=left;verticalLabelPosition=middle;align=right;verticalAlign=middle;rotation=-180;size=0.5;" parent="1" vertex="1">
          <mxGeometry x="520" y="520" width="20" height="140" as="geometry" />
        </mxCell>
        <mxCell id="mTngNyChg6h0ACZQnIlO-11" value="" style="shape=curlyBracket;whiteSpace=wrap;html=1;rounded=1;labelPosition=left;verticalLabelPosition=middle;align=right;verticalAlign=middle;rotation=-90;" parent="1" vertex="1">
          <mxGeometry x="660" y="450" width="20" height="100" as="geometry" />
        </mxCell>
        <mxCell id="mTngNyChg6h0ACZQnIlO-12" value="Group" style="text;html=1;align=center;verticalAlign=middle;whiteSpace=wrap;rounded=0;" parent="1" vertex="1">
          <mxGeometry x="740" y="510" width="100" height="20" as="geometry" />
        </mxCell>
        <mxCell id="mTngNyChg6h0ACZQnIlO-15" value="Others" style="text;html=1;align=center;verticalAlign=middle;whiteSpace=wrap;rounded=0;" parent="1" vertex="1">
          <mxGeometry x="860" y="510" width="100" height="20" as="geometry" />
        </mxCell>
        <mxCell id="mTngNyChg6h0ACZQnIlO-20" value="&lt;font style=&quot;font-size: 40px;&quot;&gt;&lt;b style=&quot;font-size: 40px;&quot;&gt;d&lt;/b&gt;&lt;/font&gt;" style="text;html=1;align=center;verticalAlign=middle;whiteSpace=wrap;rounded=0;fontSize=40;" parent="1" vertex="1">
          <mxGeometry x="560" y="450" width="40" height="30" as="geometry" />
        </mxCell>
        <mxCell id="mTngNyChg6h0ACZQnIlO-34" value="&lt;font style=&quot;font-size: 40px;&quot;&gt;r w x&lt;/font&gt;" style="text;html=1;align=center;verticalAlign=middle;whiteSpace=wrap;rounded=0;fontStyle=1;fontSize=40;" parent="1" vertex="1">
          <mxGeometry x="740" y="450" width="100" height="30" as="geometry" />
        </mxCell>
        <mxCell id="mTngNyChg6h0ACZQnIlO-35" value="" style="shape=curlyBracket;whiteSpace=wrap;html=1;rounded=1;labelPosition=left;verticalLabelPosition=middle;align=right;verticalAlign=middle;rotation=-90;" parent="1" vertex="1">
          <mxGeometry x="780" y="450" width="20" height="100" as="geometry" />
        </mxCell>
        <mxCell id="mTngNyChg6h0ACZQnIlO-36" value="&lt;font style=&quot;font-size: 40px;&quot;&gt;r w x&lt;/font&gt;" style="text;html=1;align=center;verticalAlign=middle;whiteSpace=wrap;rounded=0;fontStyle=1;fontSize=40;" parent="1" vertex="1">
          <mxGeometry x="860" y="450" width="100" height="30" as="geometry" />
        </mxCell>
        <mxCell id="mTngNyChg6h0ACZQnIlO-37" value="" style="shape=curlyBracket;whiteSpace=wrap;html=1;rounded=1;labelPosition=left;verticalLabelPosition=middle;align=right;verticalAlign=middle;rotation=-90;" parent="1" vertex="1">
          <mxGeometry x="900" y="450" width="20" height="100" as="geometry" />
        </mxCell>
        <mxCell id="mTngNyChg6h0ACZQnIlO-48" value="" style="shape=curlyBracket;whiteSpace=wrap;html=1;rounded=1;labelPosition=left;verticalLabelPosition=middle;align=right;verticalAlign=middle;rotation=-90;" parent="1" vertex="1">
          <mxGeometry x="570" y="480" width="20" height="40" as="geometry" />
        </mxCell>
        <mxCell id="mTngNyChg6h0ACZQnIlO-50" value="" style="shape=curlyBracket;whiteSpace=wrap;html=1;rounded=1;labelPosition=left;verticalLabelPosition=middle;align=right;verticalAlign=middle;rotation=-90;" parent="1" vertex="1">
          <mxGeometry x="780" y="370" width="20" height="340" as="geometry" />
        </mxCell>
        <mxCell id="mTngNyChg6h0ACZQnIlO-51" style="edgeStyle=orthogonalEdgeStyle;rounded=1;orthogonalLoop=1;jettySize=auto;html=1;endArrow=none;endFill=0;curved=0;" parent="1" edge="1">
          <mxGeometry relative="1" as="geometry">
            <mxPoint x="580" y="520" as="sourcePoint" />
            <mxPoint x="550" y="590" as="targetPoint" />
            <Array as="points">
              <mxPoint x="580" y="590" />
            </Array>
          </mxGeometry>
        </mxCell>
        <mxCell id="mTngNyChg6h0ACZQnIlO-54" value="-" style="text;html=1;align=center;verticalAlign=middle;whiteSpace=wrap;rounded=0;fontStyle=1" parent="1" vertex="1">
          <mxGeometry x="500" y="520" width="20" height="20" as="geometry" />
        </mxCell>
        <mxCell id="mTngNyChg6h0ACZQnIlO-55" value="d" style="text;html=1;align=center;verticalAlign=middle;whiteSpace=wrap;rounded=0;fontStyle=1" parent="1" vertex="1">
          <mxGeometry x="500" y="540" width="20" height="20" as="geometry" />
        </mxCell>
        <mxCell id="mTngNyChg6h0ACZQnIlO-57" value="l" style="text;html=1;align=center;verticalAlign=middle;whiteSpace=wrap;rounded=0;fontStyle=1" parent="1" vertex="1">
          <mxGeometry x="500" y="560" width="20" height="20" as="geometry" />
        </mxCell>
        <mxCell id="mTngNyChg6h0ACZQnIlO-58" value="c" style="text;html=1;align=center;verticalAlign=middle;whiteSpace=wrap;rounded=0;fontStyle=1" parent="1" vertex="1">
          <mxGeometry x="500" y="580" width="20" height="20" as="geometry" />
        </mxCell>
        <mxCell id="mTngNyChg6h0ACZQnIlO-59" value="b" style="text;html=1;align=center;verticalAlign=middle;whiteSpace=wrap;rounded=0;fontStyle=1" parent="1" vertex="1">
          <mxGeometry x="500" y="600" width="20" height="20" as="geometry" />
        </mxCell>
        <mxCell id="mTngNyChg6h0ACZQnIlO-60" value="p" style="text;html=1;align=center;verticalAlign=middle;whiteSpace=wrap;rounded=0;fontStyle=1" parent="1" vertex="1">
          <mxGeometry x="500" y="620" width="20" height="20" as="geometry" />
        </mxCell>
        <mxCell id="mTngNyChg6h0ACZQnIlO-61" value="s" style="text;html=1;align=center;verticalAlign=middle;whiteSpace=wrap;rounded=0;fontStyle=1" parent="1" vertex="1">
          <mxGeometry x="500" y="640" width="20" height="20" as="geometry" />
        </mxCell>
        <mxCell id="mTngNyChg6h0ACZQnIlO-63" value="&lt;p data-pm-slice=&quot;1 1 []&quot;&gt;file&amp;nbsp;&amp;nbsp;&lt;/p&gt;" style="text;html=1;align=right;verticalAlign=middle;whiteSpace=wrap;rounded=0;fontStyle=1" parent="1" vertex="1">
          <mxGeometry x="380" y="520" width="110" height="20" as="geometry" />
        </mxCell>
        <mxCell id="mTngNyChg6h0ACZQnIlO-64" value="&lt;p data-pm-slice=&quot;1 1 []&quot;&gt;directory&amp;nbsp;&amp;nbsp;&lt;/p&gt;" style="text;html=1;align=right;verticalAlign=middle;whiteSpace=wrap;rounded=0;fontStyle=1" parent="1" vertex="1">
          <mxGeometry x="380" y="540" width="110" height="20" as="geometry" />
        </mxCell>
        <mxCell id="mTngNyChg6h0ACZQnIlO-65" value="&lt;p data-pm-slice=&quot;1 1 []&quot;&gt;sym link&amp;nbsp;&amp;nbsp;&lt;/p&gt;" style="text;html=1;align=right;verticalAlign=middle;whiteSpace=wrap;rounded=0;fontStyle=1" parent="1" vertex="1">
          <mxGeometry x="380" y="560" width="110" height="20" as="geometry" />
        </mxCell>
        <mxCell id="mTngNyChg6h0ACZQnIlO-66" value="&lt;p data-pm-slice=&quot;1 1 []&quot;&gt;character device&amp;nbsp;&amp;nbsp;&lt;/p&gt;" style="text;html=1;align=right;verticalAlign=middle;whiteSpace=wrap;rounded=0;fontStyle=1" parent="1" vertex="1">
          <mxGeometry x="380" y="580" width="110" height="20" as="geometry" />
        </mxCell>
        <mxCell id="mTngNyChg6h0ACZQnIlO-67" value="&lt;p data-pm-slice=&quot;1 1 []&quot;&gt;block device&amp;nbsp;&amp;nbsp;&lt;/p&gt;" style="text;html=1;align=right;verticalAlign=middle;whiteSpace=wrap;rounded=0;fontStyle=1" parent="1" vertex="1">
          <mxGeometry x="380" y="600" width="110" height="20" as="geometry" />
        </mxCell>
        <mxCell id="mTngNyChg6h0ACZQnIlO-68" value="&lt;p data-pm-slice=&quot;1 1 []&quot;&gt;pipe (FIFO)&amp;nbsp;&amp;nbsp;&lt;br&gt;&lt;/p&gt;" style="text;html=1;align=right;verticalAlign=middle;whiteSpace=wrap;rounded=0;fontStyle=1" parent="1" vertex="1">
          <mxGeometry x="380" y="620" width="110" height="20" as="geometry" />
        </mxCell>
        <mxCell id="mTngNyChg6h0ACZQnIlO-69" value="&lt;p data-pm-slice=&quot;1 1 []&quot;&gt;socket&amp;nbsp;&amp;nbsp;&lt;/p&gt;" style="text;html=1;align=right;verticalAlign=middle;whiteSpace=wrap;rounded=0;fontStyle=1" parent="1" vertex="1">
          <mxGeometry x="380" y="640" width="110" height="20" as="geometry" />
        </mxCell>
        <mxCell id="mTngNyChg6h0ACZQnIlO-77" value="&lt;font style=&quot;font-size: 25px;&quot;&gt;1 1 1&lt;/font&gt;" style="text;html=1;align=center;verticalAlign=middle;whiteSpace=wrap;rounded=0;fontStyle=1;fontSize=25;" parent="1" vertex="1">
          <mxGeometry x="620" y="390" width="100" height="40" as="geometry" />
        </mxCell>
        <mxCell id="mTngNyChg6h0ACZQnIlO-81" value="" style="endArrow=classic;html=1;rounded=1;entryX=0;entryY=0.5;entryDx=0;entryDy=0;exitX=0.85;exitY=-0.003;exitDx=0;exitDy=0;edgeStyle=orthogonalEdgeStyle;curved=0;endFill=1;exitPerimeter=0;" parent="1" source="mTngNyChg6h0ACZQnIlO-36" target="mTngNyChg6h0ACZQnIlO-83" edge="1">
          <mxGeometry width="50" height="50" relative="1" as="geometry">
            <mxPoint x="944.8" y="459.4" as="sourcePoint" />
            <mxPoint x="1000" y="415" as="targetPoint" />
          </mxGeometry>
        </mxCell>
        <mxCell id="mTngNyChg6h0ACZQnIlO-94" style="edgeStyle=orthogonalEdgeStyle;rounded=0;orthogonalLoop=1;jettySize=auto;html=1;exitX=1;exitY=0.5;exitDx=0;exitDy=0;entryX=0;entryY=0.5;entryDx=0;entryDy=0;" parent="1" source="mTngNyChg6h0ACZQnIlO-83" target="mTngNyChg6h0ACZQnIlO-89" edge="1">
          <mxGeometry relative="1" as="geometry">
            <mxPoint x="1050" y="432.5" as="sourcePoint" />
          </mxGeometry>
        </mxCell>
        <mxCell id="mTngNyChg6h0ACZQnIlO-83" value="&amp;nbsp; &amp;nbsp;exectue" style="text;html=1;align=left;verticalAlign=middle;whiteSpace=wrap;rounded=0;fontStyle=1" parent="1" vertex="1">
          <mxGeometry x="970" y="425" width="80" height="15" as="geometry" />
        </mxCell>
        <mxCell id="mTngNyChg6h0ACZQnIlO-85" style="edgeStyle=orthogonalEdgeStyle;rounded=1;orthogonalLoop=1;jettySize=auto;html=1;entryX=0;entryY=0.5;entryDx=0;entryDy=0;exitX=0.471;exitY=-0.005;exitDx=0;exitDy=0;curved=0;endArrow=classic;endFill=1;exitPerimeter=0;" parent="1" source="mTngNyChg6h0ACZQnIlO-36" target="mTngNyChg6h0ACZQnIlO-87" edge="1">
          <mxGeometry relative="1" as="geometry">
            <mxPoint x="907.0000000000002" y="460.0000000000001" as="sourcePoint" />
            <mxPoint x="970" y="420" as="targetPoint" />
          </mxGeometry>
        </mxCell>
        <mxCell id="mTngNyChg6h0ACZQnIlO-86" style="edgeStyle=orthogonalEdgeStyle;rounded=1;orthogonalLoop=1;jettySize=auto;html=1;exitX=0.132;exitY=-0.003;exitDx=0;exitDy=0;curved=0;endArrow=classic;endFill=1;entryX=0;entryY=0.5;entryDx=0;entryDy=0;exitPerimeter=0;" parent="1" source="mTngNyChg6h0ACZQnIlO-36" target="mTngNyChg6h0ACZQnIlO-88" edge="1">
          <mxGeometry relative="1" as="geometry">
            <mxPoint x="873" y="460" as="sourcePoint" />
            <mxPoint x="970" y="410" as="targetPoint" />
          </mxGeometry>
        </mxCell>
        <mxCell id="mTngNyChg6h0ACZQnIlO-93" style="edgeStyle=orthogonalEdgeStyle;rounded=0;orthogonalLoop=1;jettySize=auto;html=1;exitX=1;exitY=0.5;exitDx=0;exitDy=0;entryX=0;entryY=0.5;entryDx=0;entryDy=0;" parent="1" source="mTngNyChg6h0ACZQnIlO-87" target="mTngNyChg6h0ACZQnIlO-90" edge="1">
          <mxGeometry relative="1" as="geometry">
            <mxPoint x="1050" y="417.5" as="sourcePoint" />
          </mxGeometry>
        </mxCell>
        <mxCell id="mTngNyChg6h0ACZQnIlO-87" value="&amp;nbsp; &amp;nbsp;write" style="text;html=1;align=left;verticalAlign=middle;whiteSpace=wrap;rounded=0;fontStyle=1" parent="1" vertex="1">
          <mxGeometry x="970" y="410" width="80" height="15" as="geometry" />
        </mxCell>
        <mxCell id="mTngNyChg6h0ACZQnIlO-92" style="edgeStyle=orthogonalEdgeStyle;rounded=0;orthogonalLoop=1;jettySize=auto;html=1;exitX=1;exitY=0.5;exitDx=0;exitDy=0;entryX=0;entryY=0.5;entryDx=0;entryDy=0;" parent="1" source="mTngNyChg6h0ACZQnIlO-88" target="mTngNyChg6h0ACZQnIlO-91" edge="1">
          <mxGeometry relative="1" as="geometry">
            <mxPoint x="1050" y="402.5" as="sourcePoint" />
          </mxGeometry>
        </mxCell>
        <mxCell id="mTngNyChg6h0ACZQnIlO-88" value="&amp;nbsp; &amp;nbsp;read" style="text;html=1;align=left;verticalAlign=middle;whiteSpace=wrap;rounded=0;fontStyle=1" parent="1" vertex="1">
          <mxGeometry x="970" y="395" width="80" height="15" as="geometry" />
        </mxCell>
        <mxCell id="mTngNyChg6h0ACZQnIlO-89" value="1" style="text;html=1;align=center;verticalAlign=middle;whiteSpace=wrap;rounded=0;fontStyle=1" parent="1" vertex="1">
          <mxGeometry x="1080" y="425" width="40" height="15" as="geometry" />
        </mxCell>
        <mxCell id="mTngNyChg6h0ACZQnIlO-90" value="2" style="text;html=1;align=center;verticalAlign=middle;whiteSpace=wrap;rounded=0;fontStyle=1" parent="1" vertex="1">
          <mxGeometry x="1080" y="410" width="40" height="15" as="geometry" />
        </mxCell>
        <mxCell id="mTngNyChg6h0ACZQnIlO-91" value="4" style="text;html=1;align=center;verticalAlign=middle;whiteSpace=wrap;rounded=0;fontStyle=1" parent="1" vertex="1">
          <mxGeometry x="1080" y="395" width="40" height="15" as="geometry" />
        </mxCell>
        <mxCell id="mTngNyChg6h0ACZQnIlO-137" value="" style="shape=curlyBracket;whiteSpace=wrap;html=1;rounded=1;labelPosition=left;verticalLabelPosition=middle;align=right;verticalAlign=middle;rotation=-180;" parent="1" vertex="1">
          <mxGeometry x="1110" y="390" width="20" height="60" as="geometry" />
        </mxCell>
        <mxCell id="mTngNyChg6h0ACZQnIlO-138" style="edgeStyle=orthogonalEdgeStyle;rounded=1;orthogonalLoop=1;jettySize=auto;html=1;curved=0;" parent="1" edge="1">
          <mxGeometry relative="1" as="geometry">
            <mxPoint x="1140" y="420" as="sourcePoint" />
            <mxPoint x="1190" y="470" as="targetPoint" />
            <Array as="points">
              <mxPoint x="1190" y="420" />
            </Array>
          </mxGeometry>
        </mxCell>
        <mxCell id="degWy8N9L_69Awmi3mUX-1" value="&lt;font style=&quot;font-size: 25px;&quot;&gt;7&lt;/font&gt;" style="text;html=1;align=center;verticalAlign=middle;whiteSpace=wrap;rounded=0;fontStyle=1;fontSize=25;" parent="1" vertex="1">
          <mxGeometry x="740" y="390" width="100" height="40" as="geometry" />
        </mxCell>
        <mxCell id="degWy8N9L_69Awmi3mUX-3" value="&lt;div&gt;&lt;font color=&quot;#009900&quot;&gt;# change permissions of the item to 777&lt;/font&gt;&lt;/div&gt;chmod 777 /path/to/file&lt;div&gt;&lt;br&gt;&lt;/div&gt;&lt;div&gt;&lt;font color=&quot;#009900&quot;&gt;# add execute permissions for user, group, and others to the item&lt;/font&gt;&lt;/div&gt;&lt;div&gt;chmod +x /path/to/file&lt;/div&gt;&lt;div&gt;chmod u+x g+x o+x /path/to/file&lt;/div&gt;&lt;div&gt;&lt;br&gt;&lt;/div&gt;&lt;div&gt;&lt;div&gt;&lt;font color=&quot;#009900&quot;&gt;# remove execute permissions for user, group, and others from the item&lt;/font&gt;&lt;/div&gt;&lt;/div&gt;&lt;div&gt;chmod -x /path/to/file&lt;/div&gt;" style="text;html=1;align=left;verticalAlign=top;whiteSpace=wrap;rounded=0;" parent="1" vertex="1">
          <mxGeometry x="640" y="600" width="400" height="160" as="geometry" />
        </mxCell>
        <mxCell id="degWy8N9L_69Awmi3mUX-8" value="" style="shape=curlyBracket;whiteSpace=wrap;html=1;rounded=1;labelPosition=left;verticalLabelPosition=middle;align=right;verticalAlign=middle;rotation=90;" parent="1" vertex="1">
          <mxGeometry x="780" y="200" width="20" height="340" as="geometry" />
        </mxCell>
        <mxCell id="degWy8N9L_69Awmi3mUX-9" value="&lt;font style=&quot;font-size: 25px;&quot;&gt;7 7 7&lt;/font&gt;" style="text;html=1;align=center;verticalAlign=middle;whiteSpace=wrap;rounded=0;fontStyle=1;fontSize=25;" parent="1" vertex="1">
          <mxGeometry x="740" y="320" width="100" height="40" as="geometry" />
        </mxCell>
        <mxCell id="9B4mcD3zwjzIk-0Qhn4t-1" value="" style="shape=curlyBracket;whiteSpace=wrap;html=1;rounded=1;labelPosition=left;verticalLabelPosition=middle;align=right;verticalAlign=middle;rotation=90;" parent="1" vertex="1">
          <mxGeometry x="660" y="390" width="20" height="100" as="geometry" />
        </mxCell>
        <mxCell id="9B4mcD3zwjzIk-0Qhn4t-2" value="" style="shape=curlyBracket;whiteSpace=wrap;html=1;rounded=1;labelPosition=left;verticalLabelPosition=middle;align=right;verticalAlign=middle;rotation=90;" parent="1" vertex="1">
          <mxGeometry x="780" y="390" width="20" height="100" as="geometry" />
        </mxCell>
        <mxCell id="9i1kv1MdHoGyVPmcnzdT-67" value="alphanum" style="text;html=1;align=center;verticalAlign=bottom;whiteSpace=wrap;rounded=0;fontSize=8;" parent="1" vertex="1">
          <mxGeometry x="1170" y="480" width="40" height="20" as="geometry" />
        </mxCell>
        <mxCell id="9i1kv1MdHoGyVPmcnzdT-68" value="decimal" style="text;html=1;align=center;verticalAlign=bottom;whiteSpace=wrap;rounded=0;fontSize=8;" parent="1" vertex="1">
          <mxGeometry x="1230" y="480" width="40" height="20" as="geometry" />
        </mxCell>
        <mxCell id="9i1kv1MdHoGyVPmcnzdT-69" value="binary" style="text;html=1;align=center;verticalAlign=bottom;whiteSpace=wrap;rounded=0;fontSize=8;" parent="1" vertex="1">
          <mxGeometry x="1350" y="480" width="40" height="20" as="geometry" />
        </mxCell>
        <mxCell id="9i1kv1MdHoGyVPmcnzdT-227" value="=" style="group" parent="1" vertex="1" connectable="0">
          <mxGeometry x="1210" y="500" width="20" height="240" as="geometry" />
        </mxCell>
        <mxCell id="9i1kv1MdHoGyVPmcnzdT-228" value="=" style="rounded=0;whiteSpace=wrap;html=1;strokeColor=none;" parent="9i1kv1MdHoGyVPmcnzdT-227" vertex="1">
          <mxGeometry width="20" height="30" as="geometry" />
        </mxCell>
        <mxCell id="9i1kv1MdHoGyVPmcnzdT-229" value="=" style="rounded=0;whiteSpace=wrap;html=1;strokeColor=none;" parent="9i1kv1MdHoGyVPmcnzdT-227" vertex="1">
          <mxGeometry y="30" width="20" height="30" as="geometry" />
        </mxCell>
        <mxCell id="9i1kv1MdHoGyVPmcnzdT-230" value="=" style="rounded=0;whiteSpace=wrap;html=1;strokeColor=none;" parent="9i1kv1MdHoGyVPmcnzdT-227" vertex="1">
          <mxGeometry y="60" width="20" height="30" as="geometry" />
        </mxCell>
        <mxCell id="9i1kv1MdHoGyVPmcnzdT-231" value="=" style="rounded=0;whiteSpace=wrap;html=1;strokeColor=none;" parent="9i1kv1MdHoGyVPmcnzdT-227" vertex="1">
          <mxGeometry y="90" width="20" height="30" as="geometry" />
        </mxCell>
        <mxCell id="9i1kv1MdHoGyVPmcnzdT-232" value="=" style="rounded=0;whiteSpace=wrap;html=1;strokeColor=none;" parent="9i1kv1MdHoGyVPmcnzdT-227" vertex="1">
          <mxGeometry y="120" width="20" height="30" as="geometry" />
        </mxCell>
        <mxCell id="9i1kv1MdHoGyVPmcnzdT-233" value="=" style="rounded=0;whiteSpace=wrap;html=1;strokeColor=none;" parent="9i1kv1MdHoGyVPmcnzdT-227" vertex="1">
          <mxGeometry y="150" width="20" height="30" as="geometry" />
        </mxCell>
        <mxCell id="9i1kv1MdHoGyVPmcnzdT-234" value="=" style="rounded=0;whiteSpace=wrap;html=1;strokeColor=none;" parent="9i1kv1MdHoGyVPmcnzdT-227" vertex="1">
          <mxGeometry y="180" width="20" height="30" as="geometry" />
        </mxCell>
        <mxCell id="9i1kv1MdHoGyVPmcnzdT-235" value="=" style="rounded=0;whiteSpace=wrap;html=1;strokeColor=none;" parent="9i1kv1MdHoGyVPmcnzdT-227" vertex="1">
          <mxGeometry y="210" width="20" height="30" as="geometry" />
        </mxCell>
        <mxCell id="9i1kv1MdHoGyVPmcnzdT-302" value="=" style="group" parent="1" vertex="1" connectable="0">
          <mxGeometry x="1270" y="500" width="20" height="240" as="geometry" />
        </mxCell>
        <mxCell id="9i1kv1MdHoGyVPmcnzdT-303" value="=" style="rounded=0;whiteSpace=wrap;html=1;strokeColor=none;" parent="9i1kv1MdHoGyVPmcnzdT-302" vertex="1">
          <mxGeometry width="20" height="30" as="geometry" />
        </mxCell>
        <mxCell id="9i1kv1MdHoGyVPmcnzdT-304" value="=" style="rounded=0;whiteSpace=wrap;html=1;strokeColor=none;" parent="9i1kv1MdHoGyVPmcnzdT-302" vertex="1">
          <mxGeometry y="30" width="20" height="30" as="geometry" />
        </mxCell>
        <mxCell id="9i1kv1MdHoGyVPmcnzdT-305" value="=" style="rounded=0;whiteSpace=wrap;html=1;strokeColor=none;" parent="9i1kv1MdHoGyVPmcnzdT-302" vertex="1">
          <mxGeometry y="60" width="20" height="30" as="geometry" />
        </mxCell>
        <mxCell id="9i1kv1MdHoGyVPmcnzdT-306" value="=" style="rounded=0;whiteSpace=wrap;html=1;strokeColor=none;" parent="9i1kv1MdHoGyVPmcnzdT-302" vertex="1">
          <mxGeometry y="90" width="20" height="30" as="geometry" />
        </mxCell>
        <mxCell id="9i1kv1MdHoGyVPmcnzdT-307" value="=" style="rounded=0;whiteSpace=wrap;html=1;strokeColor=none;" parent="9i1kv1MdHoGyVPmcnzdT-302" vertex="1">
          <mxGeometry y="120" width="20" height="30" as="geometry" />
        </mxCell>
        <mxCell id="9i1kv1MdHoGyVPmcnzdT-308" value="=" style="rounded=0;whiteSpace=wrap;html=1;strokeColor=none;" parent="9i1kv1MdHoGyVPmcnzdT-302" vertex="1">
          <mxGeometry y="150" width="20" height="30" as="geometry" />
        </mxCell>
        <mxCell id="9i1kv1MdHoGyVPmcnzdT-309" value="=" style="rounded=0;whiteSpace=wrap;html=1;strokeColor=none;" parent="9i1kv1MdHoGyVPmcnzdT-302" vertex="1">
          <mxGeometry y="180" width="20" height="30" as="geometry" />
        </mxCell>
        <mxCell id="9i1kv1MdHoGyVPmcnzdT-310" value="=" style="rounded=0;whiteSpace=wrap;html=1;strokeColor=none;" parent="9i1kv1MdHoGyVPmcnzdT-302" vertex="1">
          <mxGeometry y="210" width="20" height="30" as="geometry" />
        </mxCell>
        <mxCell id="KMJG8KaV29nE8Qvu-Qqy-10" value="=" style="group" vertex="1" connectable="0" parent="1">
          <mxGeometry x="1330" y="500" width="20" height="240" as="geometry" />
        </mxCell>
        <mxCell id="KMJG8KaV29nE8Qvu-Qqy-11" value="=" style="rounded=0;whiteSpace=wrap;html=1;strokeColor=none;" vertex="1" parent="KMJG8KaV29nE8Qvu-Qqy-10">
          <mxGeometry width="20" height="30" as="geometry" />
        </mxCell>
        <mxCell id="KMJG8KaV29nE8Qvu-Qqy-12" value="=" style="rounded=0;whiteSpace=wrap;html=1;strokeColor=none;" vertex="1" parent="KMJG8KaV29nE8Qvu-Qqy-10">
          <mxGeometry y="30" width="20" height="30" as="geometry" />
        </mxCell>
        <mxCell id="KMJG8KaV29nE8Qvu-Qqy-13" value="=" style="rounded=0;whiteSpace=wrap;html=1;strokeColor=none;" vertex="1" parent="KMJG8KaV29nE8Qvu-Qqy-10">
          <mxGeometry y="60" width="20" height="30" as="geometry" />
        </mxCell>
        <mxCell id="KMJG8KaV29nE8Qvu-Qqy-14" value="=" style="rounded=0;whiteSpace=wrap;html=1;strokeColor=none;" vertex="1" parent="KMJG8KaV29nE8Qvu-Qqy-10">
          <mxGeometry y="90" width="20" height="30" as="geometry" />
        </mxCell>
        <mxCell id="KMJG8KaV29nE8Qvu-Qqy-15" value="=" style="rounded=0;whiteSpace=wrap;html=1;strokeColor=none;" vertex="1" parent="KMJG8KaV29nE8Qvu-Qqy-10">
          <mxGeometry y="120" width="20" height="30" as="geometry" />
        </mxCell>
        <mxCell id="KMJG8KaV29nE8Qvu-Qqy-16" value="=" style="rounded=0;whiteSpace=wrap;html=1;strokeColor=none;" vertex="1" parent="KMJG8KaV29nE8Qvu-Qqy-10">
          <mxGeometry y="150" width="20" height="30" as="geometry" />
        </mxCell>
        <mxCell id="KMJG8KaV29nE8Qvu-Qqy-17" value="=" style="rounded=0;whiteSpace=wrap;html=1;strokeColor=none;" vertex="1" parent="KMJG8KaV29nE8Qvu-Qqy-10">
          <mxGeometry y="180" width="20" height="30" as="geometry" />
        </mxCell>
        <mxCell id="KMJG8KaV29nE8Qvu-Qqy-18" value="=" style="rounded=0;whiteSpace=wrap;html=1;strokeColor=none;" vertex="1" parent="KMJG8KaV29nE8Qvu-Qqy-10">
          <mxGeometry y="210" width="20" height="30" as="geometry" />
        </mxCell>
        <mxCell id="9i1kv1MdHoGyVPmcnzdT-199" value="" style="group" parent="1" vertex="1" connectable="0">
          <mxGeometry x="1170" y="500" width="40" height="240" as="geometry" />
        </mxCell>
        <mxCell id="9i1kv1MdHoGyVPmcnzdT-147" value="r w x" style="rounded=0;whiteSpace=wrap;html=1;strokeColor=#828282;" parent="9i1kv1MdHoGyVPmcnzdT-199" vertex="1">
          <mxGeometry width="40" height="30" as="geometry" />
        </mxCell>
        <mxCell id="9i1kv1MdHoGyVPmcnzdT-181" value="r w -" style="rounded=0;whiteSpace=wrap;html=1;strokeColor=#828282;" parent="9i1kv1MdHoGyVPmcnzdT-199" vertex="1">
          <mxGeometry y="30" width="40" height="30" as="geometry" />
        </mxCell>
        <mxCell id="9i1kv1MdHoGyVPmcnzdT-182" value="r - x" style="rounded=0;whiteSpace=wrap;html=1;strokeColor=#828282;" parent="9i1kv1MdHoGyVPmcnzdT-199" vertex="1">
          <mxGeometry y="60" width="40" height="30" as="geometry" />
        </mxCell>
        <mxCell id="9i1kv1MdHoGyVPmcnzdT-184" value="&lt;b&gt;r - -&lt;/b&gt;" style="rounded=0;whiteSpace=wrap;html=1;strokeColor=#828282;" parent="9i1kv1MdHoGyVPmcnzdT-199" vertex="1">
          <mxGeometry y="90" width="40" height="30" as="geometry" />
        </mxCell>
        <mxCell id="9i1kv1MdHoGyVPmcnzdT-185" value="- w x" style="rounded=0;whiteSpace=wrap;html=1;strokeColor=#828282;" parent="9i1kv1MdHoGyVPmcnzdT-199" vertex="1">
          <mxGeometry y="120" width="40" height="30" as="geometry" />
        </mxCell>
        <mxCell id="9i1kv1MdHoGyVPmcnzdT-186" value="&lt;b&gt;- w -&lt;/b&gt;" style="rounded=0;whiteSpace=wrap;html=1;strokeColor=#828282;" parent="9i1kv1MdHoGyVPmcnzdT-199" vertex="1">
          <mxGeometry y="150" width="40" height="30" as="geometry" />
        </mxCell>
        <mxCell id="9i1kv1MdHoGyVPmcnzdT-187" value="&lt;b&gt;- - x&lt;/b&gt;" style="rounded=0;whiteSpace=wrap;html=1;strokeColor=#828282;" parent="9i1kv1MdHoGyVPmcnzdT-199" vertex="1">
          <mxGeometry y="180" width="40" height="30" as="geometry" />
        </mxCell>
        <mxCell id="9i1kv1MdHoGyVPmcnzdT-188" value="- - -" style="rounded=0;whiteSpace=wrap;html=1;strokeColor=#828282;" parent="9i1kv1MdHoGyVPmcnzdT-199" vertex="1">
          <mxGeometry y="210" width="40" height="30" as="geometry" />
        </mxCell>
        <mxCell id="9i1kv1MdHoGyVPmcnzdT-200" value="" style="group" parent="1" vertex="1" connectable="0">
          <mxGeometry x="1350" y="500" width="40" height="240" as="geometry" />
        </mxCell>
        <mxCell id="9i1kv1MdHoGyVPmcnzdT-202" value="1 1 0" style="rounded=0;whiteSpace=wrap;html=1;strokeColor=#828282;" parent="9i1kv1MdHoGyVPmcnzdT-200" vertex="1">
          <mxGeometry y="30" width="40" height="30" as="geometry" />
        </mxCell>
        <mxCell id="9i1kv1MdHoGyVPmcnzdT-203" value="1 0 1" style="rounded=0;whiteSpace=wrap;html=1;strokeColor=#828282;" parent="9i1kv1MdHoGyVPmcnzdT-200" vertex="1">
          <mxGeometry y="60" width="40" height="30" as="geometry" />
        </mxCell>
        <mxCell id="9i1kv1MdHoGyVPmcnzdT-204" value="&lt;b&gt;1 0 0&lt;/b&gt;" style="rounded=0;whiteSpace=wrap;html=1;strokeColor=#828282;" parent="9i1kv1MdHoGyVPmcnzdT-200" vertex="1">
          <mxGeometry y="90" width="40" height="30" as="geometry" />
        </mxCell>
        <mxCell id="9i1kv1MdHoGyVPmcnzdT-205" value="0 1 1" style="rounded=0;whiteSpace=wrap;html=1;strokeColor=#828282;" parent="9i1kv1MdHoGyVPmcnzdT-200" vertex="1">
          <mxGeometry y="120" width="40" height="30" as="geometry" />
        </mxCell>
        <mxCell id="9i1kv1MdHoGyVPmcnzdT-206" value="&lt;b&gt;0 1 0&lt;/b&gt;" style="rounded=0;whiteSpace=wrap;html=1;strokeColor=#828282;" parent="9i1kv1MdHoGyVPmcnzdT-200" vertex="1">
          <mxGeometry y="150" width="40" height="30" as="geometry" />
        </mxCell>
        <mxCell id="9i1kv1MdHoGyVPmcnzdT-207" value="&lt;b&gt;0 0 1&lt;/b&gt;" style="rounded=0;whiteSpace=wrap;html=1;strokeColor=#828282;" parent="9i1kv1MdHoGyVPmcnzdT-200" vertex="1">
          <mxGeometry y="180" width="40" height="30" as="geometry" />
        </mxCell>
        <mxCell id="9i1kv1MdHoGyVPmcnzdT-208" value="0 0 0" style="rounded=0;whiteSpace=wrap;html=1;strokeColor=#828282;" parent="9i1kv1MdHoGyVPmcnzdT-200" vertex="1">
          <mxGeometry y="210" width="40" height="30" as="geometry" />
        </mxCell>
        <mxCell id="9i1kv1MdHoGyVPmcnzdT-201" value="1 1 1" style="rounded=0;whiteSpace=wrap;html=1;strokeColor=#828282;" parent="9i1kv1MdHoGyVPmcnzdT-200" vertex="1">
          <mxGeometry width="40" height="30" as="geometry" />
        </mxCell>
        <mxCell id="9i1kv1MdHoGyVPmcnzdT-218" value="7" style="group" parent="1" vertex="1" connectable="0">
          <mxGeometry x="1230" y="500" width="40" height="240" as="geometry" />
        </mxCell>
        <mxCell id="9i1kv1MdHoGyVPmcnzdT-219" value="7" style="rounded=0;whiteSpace=wrap;html=1;strokeColor=#828282;" parent="9i1kv1MdHoGyVPmcnzdT-218" vertex="1">
          <mxGeometry width="40" height="30" as="geometry" />
        </mxCell>
        <mxCell id="9i1kv1MdHoGyVPmcnzdT-220" value="6" style="rounded=0;whiteSpace=wrap;html=1;strokeColor=#828282;" parent="9i1kv1MdHoGyVPmcnzdT-218" vertex="1">
          <mxGeometry y="30" width="40" height="30" as="geometry" />
        </mxCell>
        <mxCell id="9i1kv1MdHoGyVPmcnzdT-221" value="5" style="rounded=0;whiteSpace=wrap;html=1;strokeColor=#828282;" parent="9i1kv1MdHoGyVPmcnzdT-218" vertex="1">
          <mxGeometry y="60" width="40" height="30" as="geometry" />
        </mxCell>
        <mxCell id="9i1kv1MdHoGyVPmcnzdT-222" value="&lt;b&gt;4&lt;/b&gt;" style="rounded=0;whiteSpace=wrap;html=1;strokeColor=#828282;" parent="9i1kv1MdHoGyVPmcnzdT-218" vertex="1">
          <mxGeometry y="90" width="40" height="30" as="geometry" />
        </mxCell>
        <mxCell id="9i1kv1MdHoGyVPmcnzdT-223" value="3" style="rounded=0;whiteSpace=wrap;html=1;strokeColor=#828282;" parent="9i1kv1MdHoGyVPmcnzdT-218" vertex="1">
          <mxGeometry y="120" width="40" height="30" as="geometry" />
        </mxCell>
        <mxCell id="9i1kv1MdHoGyVPmcnzdT-224" value="&lt;b&gt;2&lt;/b&gt;" style="rounded=0;whiteSpace=wrap;html=1;strokeColor=#828282;" parent="9i1kv1MdHoGyVPmcnzdT-218" vertex="1">
          <mxGeometry y="150" width="40" height="30" as="geometry" />
        </mxCell>
        <mxCell id="9i1kv1MdHoGyVPmcnzdT-225" value="&lt;b&gt;1&lt;/b&gt;" style="rounded=0;whiteSpace=wrap;html=1;strokeColor=#828282;" parent="9i1kv1MdHoGyVPmcnzdT-218" vertex="1">
          <mxGeometry y="180" width="40" height="30" as="geometry" />
        </mxCell>
        <mxCell id="9i1kv1MdHoGyVPmcnzdT-226" value="0" style="rounded=0;whiteSpace=wrap;html=1;strokeColor=#828282;" parent="9i1kv1MdHoGyVPmcnzdT-218" vertex="1">
          <mxGeometry y="210" width="40" height="30" as="geometry" />
        </mxCell>
        <mxCell id="KMJG8KaV29nE8Qvu-Qqy-1" value="" style="group;strokeColor=none;" vertex="1" connectable="0" parent="1">
          <mxGeometry x="1290" y="500" width="40" height="240" as="geometry" />
        </mxCell>
        <mxCell id="KMJG8KaV29nE8Qvu-Qqy-2" value="4+2+0" style="rounded=0;whiteSpace=wrap;html=1;strokeColor=none;" vertex="1" parent="KMJG8KaV29nE8Qvu-Qqy-1">
          <mxGeometry y="30" width="40" height="30" as="geometry" />
        </mxCell>
        <mxCell id="KMJG8KaV29nE8Qvu-Qqy-3" value="4+0+1" style="rounded=0;whiteSpace=wrap;html=1;strokeColor=none;" vertex="1" parent="KMJG8KaV29nE8Qvu-Qqy-1">
          <mxGeometry y="60" width="40" height="30" as="geometry" />
        </mxCell>
        <mxCell id="KMJG8KaV29nE8Qvu-Qqy-4" value="&lt;b&gt;4+0+0&lt;/b&gt;" style="rounded=0;whiteSpace=wrap;html=1;strokeColor=none;" vertex="1" parent="KMJG8KaV29nE8Qvu-Qqy-1">
          <mxGeometry y="90" width="40" height="30" as="geometry" />
        </mxCell>
        <mxCell id="KMJG8KaV29nE8Qvu-Qqy-5" value="0+2+1" style="rounded=0;whiteSpace=wrap;html=1;strokeColor=none;" vertex="1" parent="KMJG8KaV29nE8Qvu-Qqy-1">
          <mxGeometry y="120" width="40" height="30" as="geometry" />
        </mxCell>
        <mxCell id="KMJG8KaV29nE8Qvu-Qqy-6" value="&lt;b&gt;0+2+0&lt;/b&gt;" style="rounded=0;whiteSpace=wrap;html=1;strokeColor=none;" vertex="1" parent="KMJG8KaV29nE8Qvu-Qqy-1">
          <mxGeometry y="150" width="40" height="30" as="geometry" />
        </mxCell>
        <mxCell id="KMJG8KaV29nE8Qvu-Qqy-7" value="&lt;b&gt;0+0+1&lt;/b&gt;" style="rounded=0;whiteSpace=wrap;html=1;strokeColor=none;" vertex="1" parent="KMJG8KaV29nE8Qvu-Qqy-1">
          <mxGeometry y="180" width="40" height="30" as="geometry" />
        </mxCell>
        <mxCell id="KMJG8KaV29nE8Qvu-Qqy-8" value="0+0+0" style="rounded=0;whiteSpace=wrap;html=1;strokeColor=none;" vertex="1" parent="KMJG8KaV29nE8Qvu-Qqy-1">
          <mxGeometry y="210" width="40" height="30" as="geometry" />
        </mxCell>
        <mxCell id="KMJG8KaV29nE8Qvu-Qqy-9" value="4+2+1" style="rounded=0;whiteSpace=wrap;html=1;strokeColor=none;" vertex="1" parent="KMJG8KaV29nE8Qvu-Qqy-1">
          <mxGeometry width="40" height="30" as="geometry" />
        </mxCell>
        <mxCell id="KMJG8KaV29nE8Qvu-Qqy-20" value="Binary in little-endian byte order" style="text;html=1;align=center;verticalAlign=middle;whiteSpace=wrap;rounded=0;fontSize=8;rotation=-90;fontStyle=2;fontColor=#666666;" vertex="1" parent="1">
          <mxGeometry x="1281.17" y="615" width="237.01" height="10" as="geometry" />
        </mxCell>
      </root>
    </mxGraphModel>
  </diagram>
</mxfile>
